<svg xmlns="http://www.w3.org/2000/svg" xmlns:xlink="http://www.w3.org/1999/xlink" width="500" zoomAndPan="magnify" viewBox="0 0 375 374.999991" height="500" preserveAspectRatio="xMidYMid meet" version="1.0"><defs><clipPath id="d7dd221ee7"><path d="M 25 25 L 345.664062 25 L 345.664062 345.664062 L 25 345.664062 Z M 25 25 " clip-rule="nonzero"/></clipPath></defs><g clip-path="url(#d7dd221ee7)"><path fill="#ff4a3f" d="M 346.117188 185.671875 C 346.117188 188.296875 346.054688 190.921875 345.925781 193.542969 C 345.796875 196.164062 345.601562 198.785156 345.34375 201.398438 C 345.085938 204.011719 344.765625 206.617188 344.382812 209.210938 C 343.996094 211.808594 343.546875 214.398438 343.035156 216.972656 C 342.523438 219.546875 341.945312 222.109375 341.308594 224.65625 C 340.671875 227.203125 339.972656 229.734375 339.207031 232.246094 C 338.445312 234.757812 337.621094 237.25 336.738281 239.722656 C 335.855469 242.195312 334.910156 244.644531 333.902344 247.070312 C 332.898438 249.496094 331.835938 251.898438 330.710938 254.269531 C 329.589844 256.644531 328.410156 258.988281 327.171875 261.304688 C 325.933594 263.621094 324.640625 265.90625 323.289062 268.15625 C 321.941406 270.410156 320.535156 272.625 319.078125 274.808594 C 317.617188 276.992188 316.105469 279.140625 314.542969 281.25 C 312.976562 283.359375 311.363281 285.425781 309.699219 287.457031 C 308.03125 289.488281 306.316406 291.472656 304.554688 293.421875 C 302.789062 295.367188 300.980469 297.265625 299.125 299.125 C 297.265625 300.980469 295.367188 302.789062 293.421875 304.554688 C 291.472656 306.316406 289.488281 308.03125 287.457031 309.699219 C 285.425781 311.363281 283.359375 312.976562 281.25 314.542969 C 279.140625 316.105469 276.992188 317.617188 274.808594 319.078125 C 272.625 320.535156 270.410156 321.941406 268.15625 323.289062 C 265.90625 324.640625 263.621094 325.933594 261.304688 327.171875 C 258.988281 328.410156 256.644531 329.589844 254.269531 330.710938 C 251.898438 331.835938 249.496094 332.898438 247.070312 333.902344 C 244.644531 334.910156 242.195312 335.855469 239.722656 336.738281 C 237.25 337.621094 234.757812 338.445312 232.246094 339.207031 C 229.734375 339.972656 227.203125 340.671875 224.65625 341.308594 C 222.109375 341.945312 219.546875 342.523438 216.972656 343.035156 C 214.398438 343.546875 211.808594 343.996094 209.210938 344.382812 C 206.617188 344.765625 204.011719 345.085938 201.398438 345.34375 C 198.785156 345.601562 196.164062 345.796875 193.542969 345.925781 C 190.921875 346.054688 188.296875 346.117188 185.671875 346.117188 C 183.042969 346.117188 180.421875 346.054688 177.796875 345.925781 C 175.175781 345.796875 172.558594 345.601562 169.945312 345.34375 C 167.332031 345.085938 164.726562 344.765625 162.128906 344.382812 C 159.53125 343.996094 156.945312 343.546875 154.367188 343.035156 C 151.792969 342.523438 149.230469 341.945312 146.683594 341.308594 C 144.136719 340.671875 141.609375 339.972656 139.09375 339.207031 C 136.582031 338.445312 134.089844 337.621094 131.617188 336.738281 C 129.144531 335.855469 126.695312 334.910156 124.269531 333.902344 C 121.84375 332.898438 119.445312 331.835938 117.070312 330.710938 C 114.695312 329.589844 112.351562 328.410156 110.035156 327.171875 C 107.71875 325.933594 105.4375 324.640625 103.183594 323.289062 C 100.933594 321.941406 98.714844 320.535156 96.53125 319.078125 C 94.347656 317.617188 92.199219 316.105469 90.09375 314.542969 C 87.984375 312.976562 85.914062 311.363281 83.882812 309.699219 C 81.855469 308.03125 79.867188 306.316406 77.921875 304.554688 C 75.976562 302.789062 74.074219 300.980469 72.21875 299.125 C 70.359375 297.265625 68.550781 295.367188 66.785156 293.421875 C 65.023438 291.472656 63.308594 289.488281 61.644531 287.457031 C 59.976562 285.425781 58.363281 283.359375 56.796875 281.25 C 55.234375 279.140625 53.722656 276.992188 52.261719 274.808594 C 50.804688 272.625 49.398438 270.410156 48.050781 268.15625 C 46.699219 265.90625 45.40625 263.621094 44.167969 261.304688 C 42.929688 258.988281 41.75 256.644531 40.628906 254.269531 C 39.503906 251.898438 38.441406 249.496094 37.4375 247.070312 C 36.429688 244.644531 35.488281 242.195312 34.601562 239.722656 C 33.71875 237.25 32.894531 234.757812 32.132812 232.246094 C 31.371094 229.734375 30.667969 227.203125 30.03125 224.65625 C 29.394531 222.109375 28.816406 219.546875 28.304688 216.972656 C 27.792969 214.398438 27.34375 211.808594 26.960938 209.210938 C 26.574219 206.617188 26.253906 204.011719 25.996094 201.398438 C 25.738281 198.785156 25.546875 196.164062 25.417969 193.542969 C 25.289062 190.921875 25.222656 188.296875 25.222656 185.671875 C 25.222656 183.042969 25.289062 180.421875 25.417969 177.796875 C 25.546875 175.175781 25.738281 172.558594 25.996094 169.945312 C 26.253906 167.332031 26.574219 164.726562 26.960938 162.128906 C 27.34375 159.53125 27.792969 156.945312 28.304688 154.367188 C 28.816406 151.792969 29.394531 149.230469 30.03125 146.683594 C 30.667969 144.136719 31.371094 141.609375 32.132812 139.09375 C 32.894531 136.582031 33.71875 134.089844 34.601562 131.617188 C 35.488281 129.144531 36.429688 126.695312 37.4375 124.269531 C 38.441406 121.84375 39.503906 119.445312 40.628906 117.070312 C 41.75 114.695312 42.929688 112.351562 44.167969 110.035156 C 45.40625 107.71875 46.699219 105.4375 48.050781 103.183594 C 49.398438 100.929688 50.804688 98.714844 52.261719 96.53125 C 53.722656 94.347656 55.234375 92.199219 56.796875 90.09375 C 58.363281 87.984375 59.976562 85.914062 61.644531 83.882812 C 63.308594 81.855469 65.023438 79.867188 66.785156 77.921875 C 68.550781 75.976562 70.359375 74.074219 72.21875 72.21875 C 74.074219 70.359375 75.976562 68.550781 77.921875 66.785156 C 79.867188 65.023438 81.855469 63.308594 83.882812 61.644531 C 85.914062 59.976562 87.984375 58.363281 90.09375 56.796875 C 92.199219 55.234375 94.347656 53.722656 96.53125 52.261719 C 98.714844 50.804688 100.933594 49.398438 103.183594 48.050781 C 105.4375 46.699219 107.71875 45.40625 110.035156 44.167969 C 112.351562 42.929688 114.695312 41.75 117.070312 40.628906 C 119.445312 39.503906 121.84375 38.441406 124.269531 37.4375 C 126.695312 36.429688 129.144531 35.488281 131.617188 34.601562 C 134.089844 33.71875 136.582031 32.894531 139.09375 32.132812 C 141.609375 31.371094 144.136719 30.667969 146.683594 30.03125 C 149.230469 29.394531 151.792969 28.816406 154.367188 28.304688 C 156.945312 27.792969 159.53125 27.34375 162.128906 26.960938 C 164.726562 26.574219 167.332031 26.253906 169.945312 25.996094 C 172.558594 25.738281 175.175781 25.546875 177.796875 25.417969 C 180.421875 25.289062 183.042969 25.222656 185.671875 25.222656 C 188.296875 25.222656 190.921875 25.289062 193.542969 25.417969 C 196.164062 25.546875 198.785156 25.738281 201.398438 25.996094 C 204.011719 26.253906 206.617188 26.574219 209.210938 26.960938 C 211.808594 27.34375 214.398438 27.792969 216.972656 28.304688 C 219.546875 28.816406 222.109375 29.394531 224.65625 30.03125 C 227.203125 30.667969 229.734375 31.371094 232.246094 32.132812 C 234.757812 32.894531 237.25 33.71875 239.722656 34.601562 C 242.195312 35.488281 244.644531 36.429688 247.070312 37.4375 C 249.496094 38.441406 251.898438 39.503906 254.269531 40.628906 C 256.644531 41.75 258.988281 42.929688 261.304688 44.167969 C 263.621094 45.40625 265.90625 46.699219 268.15625 48.050781 C 270.410156 49.398438 272.625 50.804688 274.808594 52.261719 C 276.992188 53.722656 279.140625 55.234375 281.25 56.796875 C 283.359375 58.363281 285.425781 59.976562 287.457031 61.644531 C 289.488281 63.308594 291.472656 65.023438 293.421875 66.785156 C 295.367188 68.550781 297.265625 70.359375 299.125 72.21875 C 300.980469 74.074219 302.789062 75.976562 304.554688 77.921875 C 306.316406 79.867188 308.03125 81.855469 309.699219 83.882812 C 311.363281 85.914062 312.976562 87.984375 314.542969 90.09375 C 316.105469 92.199219 317.617188 94.347656 319.078125 96.53125 C 320.535156 98.714844 321.941406 100.929688 323.289062 103.183594 C 324.640625 105.4375 325.933594 107.71875 327.171875 110.035156 C 328.410156 112.351562 329.589844 114.695312 330.710938 117.070312 C 331.835938 119.445312 332.898438 121.84375 333.902344 124.269531 C 334.910156 126.695312 335.855469 129.144531 336.738281 131.617188 C 337.621094 134.089844 338.445312 136.582031 339.207031 139.09375 C 339.972656 141.609375 340.671875 144.136719 341.308594 146.683594 C 341.945312 149.230469 342.523438 151.792969 343.035156 154.367188 C 343.546875 156.945312 343.996094 159.53125 344.382812 162.128906 C 344.765625 164.726562 345.085938 167.332031 345.34375 169.945312 C 345.601562 172.558594 345.796875 175.175781 345.925781 177.796875 C 346.054688 180.421875 346.117188 183.042969 346.117188 185.671875 Z M 346.117188 185.671875 " fill-opacity="1" fill-rule="nonzero"/></g><path fill="#ffffff" d="M 225.484375 101.210938 C 224.96875 101.210938 224.46875 101.308594 223.988281 101.507812 C 223.507812 101.707031 223.085938 101.988281 222.71875 102.355469 C 222.351562 102.722656 222.070312 103.144531 221.871094 103.625 C 221.671875 104.105469 221.574219 104.601562 221.574219 105.121094 L 221.574219 198.113281 L 147.777344 102.730469 C 147.40625 102.25 146.949219 101.875 146.40625 101.609375 C 145.863281 101.34375 145.285156 101.210938 144.679688 101.210938 L 118.585938 101.210938 C 118.066406 101.210938 117.566406 101.308594 117.085938 101.507812 C 116.605469 101.707031 116.183594 101.988281 115.816406 102.355469 C 115.449219 102.722656 115.167969 103.144531 114.96875 103.625 C 114.769531 104.105469 114.671875 104.601562 114.671875 105.121094 L 114.671875 266.171875 C 114.671875 266.691406 114.769531 267.191406 114.96875 267.671875 C 115.167969 268.152344 115.449219 268.574219 115.816406 268.941406 C 116.183594 269.308594 116.605469 269.589844 117.085938 269.789062 C 117.566406 269.988281 118.066406 270.085938 118.585938 270.085938 L 150.136719 270.085938 C 150.65625 270.085938 151.15625 269.988281 151.632812 269.789062 C 152.113281 269.589844 152.539062 269.308594 152.902344 268.941406 C 153.269531 268.574219 153.554688 268.152344 153.753906 267.671875 C 153.949219 267.191406 154.050781 266.691406 154.050781 266.171875 L 154.050781 172.957031 L 228.011719 268.554688 C 228.382812 269.035156 228.839844 269.410156 229.382812 269.675781 C 229.929688 269.945312 230.503906 270.078125 231.109375 270.074219 L 257.050781 270.074219 C 257.570312 270.074219 258.066406 269.976562 258.546875 269.777344 C 259.027344 269.578125 259.449219 269.296875 259.816406 268.929688 C 260.183594 268.5625 260.464844 268.140625 260.664062 267.660156 C 260.863281 267.179688 260.964844 266.679688 260.964844 266.164062 L 260.964844 105.167969 C 260.964844 104.648438 260.863281 104.148438 260.664062 103.667969 C 260.464844 103.191406 260.183594 102.765625 259.816406 102.398438 C 259.449219 102.03125 259.027344 101.75 258.546875 101.550781 C 258.066406 101.351562 257.570312 101.253906 257.050781 101.253906 Z M 225.484375 101.210938 " fill-opacity="1" fill-rule="evenodd"/></svg>